<?xml version="1.0" encoding="UTF-8" standalone="no"?>
<svg width="55px" height="75px" viewBox="0 0 55 75" version="1.1" xmlns="http://www.w3.org/2000/svg" xmlns:xlink="http://www.w3.org/1999/xlink" xmlns:sketch="http://www.bohemiancoding.com/sketch/ns">
    <title>baty</title>
    <description>Created with Sketch (http://www.bohemiancoding.com/sketch)</description>
    <defs></defs>
    <g id="Page-1" stroke="none" stroke-width="1" fill="none" fill-rule="evenodd" sketch:type="MSPage">
        <g id="baty" sketch:type="MSArtboardGroup" transform="translate(-15.000000, -14.000000)" fill="#929292">
            <g id="icon_30940" sketch:type="MSLayerGroup" transform="translate(16.000000, 14.000000)">
                <path d="M34.1897143,58.2476562 C34.0246286,58.2476562 33.8572286,58.2070312 33.7014,58.1242187 L30.0687429,56.1851562 C27.2676857,57.18125 24.3617143,56.5257812 23.2068857,56.1835937 L20.2307143,58.084375 C19.7408571,58.3960937 19.0920857,58.2484375 18.7835143,57.7515625 C18.4749429,57.2546875 18.6215143,56.5984375 19.1113714,56.2859375 L22.5018,54.1210937 C22.7787429,53.94375 23.1212571,53.909375 23.4275143,54.0242187 C23.4599143,54.0367187 26.8495714,55.271875 29.7277714,54.040625 C30.0178286,53.9164062 30.3464571,53.93125 30.6264857,54.0796875 L34.6803429,56.24375 C35.1925714,56.5179687 35.3892857,57.1609375 35.1185143,57.6804687 C34.9318286,58.040625 34.5677143,58.2476562 34.1897143,58.2476562 L34.1897143,58.2476562 L34.1897143,58.2476562 Z" id="Shape" sketch:type="MSShapeGroup"></path>
                <path d="M30.1212,61.9390625 C29.9993143,61.9390625 29.8774286,61.9179687 29.7563143,61.8726562 C29.7115714,61.85625 27.0547714,60.8976562 24.8137714,61.8554687 C24.2799429,62.084375 23.6651143,61.8304687 23.4390857,61.2890625 C23.2130571,60.7476562 23.4637714,60.125 23.9976,59.896875 C27.0246857,58.603125 30.3464571,59.8273437 30.4868571,59.8804687 C31.0307143,60.0859375 31.3061143,60.696875 31.104,61.246875 C30.9458571,61.6742187 30.5470286,61.9390625 30.1212,61.9390625 L30.1212,61.9390625 L30.1212,61.9390625 Z" id="Shape" sketch:type="MSShapeGroup"></path>
                <path d="M53.6343429,47.3 L53.6343429,24.91875 C53.6505429,24.8265625 53.6613429,24.7335938 53.6628857,24.6382813 C53.9915143,3.95078125 45.3962571,0.41953125 45.0313714,0.27890625 C44.496,0.0734375 43.8942857,0.14765625 43.4221714,0.47578125 C42.9500571,0.8046875 42.6669429,1.34609375 42.6638571,1.92578125 C42.6576857,2.928125 42.2850857,4.43828125 41.7034286,6.18984375 C38.6925429,4.8 35.4602571,4.021875 32.4524571,4.021875 L21.1124571,4.021875 C18.1146857,4.021875 14.8962857,4.79375 11.8946571,6.17421875 C11.3160857,4.4296875 10.9450286,2.925 10.9396286,1.92578125 C10.9365429,1.3453125 10.6526571,0.80390625 10.1813143,0.47578125 C9.7092,0.1484375 9.10748571,0.0734375 8.57288571,0.2796875 C8.23037143,0.4109375 0.698142857,3.50625 -0.0146571429,20.8085938 C-0.0470571429,21.1851563 -0.0694285714,21.5640625 -0.0694285714,21.94375 L-0.0694285714,47.6710938 C-0.0694285714,47.8023438 -0.0555428571,47.9304688 -0.0285428571,48.0523438 C0.173571429,62.8726563 12.1407429,74.865625 26.8210286,74.865625 C41.6278286,74.865625 53.6744571,62.665625 53.6744571,47.6703125 C53.6729143,47.54375 53.6598,47.41875 53.6343429,47.3 L53.6343429,47.3 Z M31.9957714,35.6835938 L39.4709143,26.4609375 C39.6012857,26.3 39.7879714,26.2 39.9924,26.1804688 C40.1983714,26.1601563 40.4004857,26.2242188 40.5570857,26.35625 L42.9176571,28.3453125 C44.7042857,29.75 45.6639429,32.365625 44.1727714,34.3210938 C44.0624571,34.4679688 43.9012286,34.5695313 43.7222571,34.6070313 L32.7479143,36.9390625 C32.6954571,36.95 32.6422286,36.9554688 32.589,36.9554688 C32.3244,36.9554688 32.0736857,36.815625 31.9317429,36.5804688 C31.7635714,36.2984375 31.7874857,35.9390625 31.9957714,35.6835938 L31.9957714,35.6835938 Z M11.5112571,28.3453125 L13.8718286,26.35625 C14.0284286,26.2242188 14.2313143,26.1601563 14.4365143,26.1804688 C14.6409429,26.2 14.8276286,26.3007813 14.958,26.4609375 L22.4331429,35.6835938 C22.6414286,35.9390625 22.6653429,36.2984375 22.4964,36.58125 C22.3544571,36.8171875 22.1037429,36.95625 21.8391429,36.95625 C21.7859143,36.95625 21.7326857,36.95 21.6802286,36.9398438 L10.7058857,34.6078125 C10.5269143,34.5703125 10.3656857,34.4679688 10.2553714,34.321875 C8.76497143,32.365625 9.72385714,29.7507813 11.5112571,28.3453125 L11.5112571,28.3453125 Z M26.8202571,71.3328125 C15.6823714,71.3328125 6.34577143,63.3976563 4.01837143,52.8171875 C4.7412,51.5820313 9.92288571,43.0859375 16.8341143,40.925 L26.5734,47.3867188 C26.9228571,47.61875 27.3741429,47.61875 27.7236,47.3867188 L37.4628857,40.925 C43.4738571,42.8046875 48.1911429,49.5015625 49.7856857,52.0117188 C47.7653143,62.9921875 38.2389429,71.3328125 26.8202571,71.3328125 L26.8202571,71.3328125 Z" id="Shape" sketch:type="MSShapeGroup"></path>
            </g>
        </g>
    </g>
</svg>