<?xml version="1.0" encoding="UTF-8" standalone="no"?>
<svg width="63px" height="74px" viewBox="0 0 63 74" version="1.1" xmlns="http://www.w3.org/2000/svg" xmlns:xlink="http://www.w3.org/1999/xlink" xmlns:sketch="http://www.bohemiancoding.com/sketch/ns">
    <title>hulky</title>
    <description>Created with Sketch (http://www.bohemiancoding.com/sketch)</description>
    <defs></defs>
    <g id="Page-1" stroke="none" stroke-width="1" fill="none" fill-rule="evenodd" sketch:type="MSPage">
        <g id="hulky" sketch:type="MSArtboardGroup" transform="translate(-13.000000, -15.000000)" fill="#929292">
            <g id="icon_30946" sketch:type="MSLayerGroup" transform="translate(13.000000, 15.000000)">
                <path d="M62.3646867,12.291375 C62.1096506,12.1316875 61.8493012,12.0069792 61.5950241,11.8929167 C62.3593735,11.2534063 63.0660361,10.5180833 62.8375663,9.54322917 C62.7593855,9.21016667 62.5286386,8.93413542 62.2143976,8.80030208 C61.9009157,8.66646875 61.5411325,8.69080208 61.2481446,8.86569792 L60.9331446,9.05580208 C60.5194699,9.30673958 60.1346386,9.53942708 59.7262771,9.72344792 C59.6556867,9.2938125 59.514506,8.87330208 59.2883133,8.52198958 C59.0697108,8.18360417 58.6803253,7.99654167 58.2803133,8.03760417 C58.0966265,8.05661458 57.9235663,8.12201042 57.7770723,8.22466667 C57.7596145,8.22466667 57.7413976,8.22466667 57.7262169,8.22390625 C57.6768795,8.22390625 57.624506,8.22314583 57.5698554,8.22314583 C53.6304578,4.75032292 48.4955783,3.2256875 43.0692289,1.615125 C41.9466145,1.2820625 40.7860482,0.93759375 39.6368675,0.574875 C39.2945422,0.466135417 38.9203373,0.537614583 38.641012,0.764979167 C38.367,0.987020833 38.219747,1.33072917 38.2470723,1.68280208 C33.8218916,0.678291667 28.7872048,0.158927083 24.5191446,0.29884375 C24.025012,0.3148125 23.603747,0.666885417 23.5035542,1.15203125 C23.4511807,1.40677083 23.4921687,1.66303125 23.6090602,1.87975 C22.7505904,1.97328125 21.8458193,2.05920833 20.9099277,2.1489375 C16.38,2.58009375 11.2451205,3.0705625 7.74824096,4.7221875 C7.30572289,4.93130208 7.06055422,5.41492708 7.15391566,5.89703125 C7.20173494,6.14644792 7.33456627,6.36164583 7.51901205,6.51601042 C6.26660241,6.9121875 5.04379518,7.46120833 3.80960241,8.176 C3.40807229,8.40792708 3.20161446,8.87254167 3.29725301,9.32651042 C3.33748193,9.51509375 3.42704819,9.68238542 3.55001205,9.81926042 C1.20459036,10.5317708 0.469084337,11.2541667 0.270975904,12.0571667 C0.160915663,12.5035313 0.151048193,13.3666042 1.31844578,14.1293021 C2.71583133,15.0425625 3.67904819,18.3693854 4.28627711,22.2034063 L4.28627711,46.1846667 C4.28627711,46.3169792 4.3006988,46.4454896 4.3280241,46.5694375 C4.53372289,61.5291146 16.7450964,73.6349479 31.7261928,73.6349479 C46.8348072,73.6349479 59.1266386,61.3215208 59.1266386,46.1846667 C59.1266386,46.0561563 59.1129759,45.9314479 59.0871687,45.8105417 L59.0871687,23.9227083 C59.8613855,20.3685208 60.8283976,16.0189375 62.6151687,13.8897708 C62.8147952,13.6525208 62.9013253,13.3399896 62.852747,13.0335417 C62.8041687,12.7270938 62.6265542,12.455625 62.3646867,12.291375 L62.3646867,12.291375 Z M31.7261928,70.0693542 C18.5796867,70.0693542 7.88410843,59.3550833 7.88410843,46.1846667 C7.88410843,46.0569167 7.87044578,45.9322083 7.84539759,45.8120625 L7.84539759,30.4151458 L10.0724096,22.7972917 C10.0754458,22.8018542 10.079241,22.8071771 10.0830361,22.8117396 C10.4602771,23.3075313 10.8496627,23.8208125 11.382506,24.2626146 C11.7976988,24.6070833 12.4049277,24.5880729 12.7981084,24.2185104 C13.8076265,23.2695104 14.9681928,22.2186146 16.3147229,21.3471771 C16.5986024,21.9441042 16.9136024,22.4946458 17.2225301,23.0337813 C17.7401928,23.9371563 18.228253,24.7911042 18.5349036,25.7971354 C18.625988,26.0952188 18.8407952,26.3377917 19.1246747,26.4640208 C19.4085542,26.59025 19.7334217,26.5864479 20.013506,26.4541354 C21.924759,25.5545625 23.5749036,24.4048125 25.1711566,23.2930833 C26.4486145,22.4033958 27.6638313,21.5570521 28.9982169,20.8300938 C29.168241,20.9806563 29.2820964,21.11525 29.4111325,21.2688542 C29.6843855,21.5927917 30.0251928,21.9965729 30.8206627,22.5014896 C31.1174458,22.6900729 31.4878554,22.7197292 31.8112048,22.5828542 C32.1353133,22.4452188 32.3706145,22.1570208 32.4419639,21.8125521 C32.4776386,21.6384167 32.5307711,21.4581979 32.5937711,21.2795 C32.8723373,21.80875 33.1683614,22.3091042 33.4598313,22.8026146 C34.0116506,23.734125 34.5315904,24.6139271 34.902,25.6260417 C35.005988,25.9104375 35.2245904,26.1370417 35.5046747,26.2511042 C35.7855181,26.3644063 36.1005181,26.3545208 36.373012,26.2229688 C37.9943133,25.4382188 39.4235783,24.4717292 40.8057831,23.5371771 C42.0096145,22.7235313 43.1565181,21.9486667 44.4127229,21.2878646 C44.8233614,21.6460208 45.2036386,22.0627292 45.5990964,22.4976875 C46.3778675,23.3523958 47.1839639,24.236 48.3589518,24.8450938 C48.8060241,25.0762604 49.3548072,24.9652396 49.6758795,24.5751458 C50.6952651,23.3387083 51.8953012,22.2946563 53.0399277,21.4057292 L55.5272892,26.0359063 L55.5272892,46.1846667 C55.5272892,46.3086146 55.5401928,46.4295208 55.5644819,46.546625 C55.3716867,59.54975 44.752012,70.0693542 31.7261928,70.0693542 L31.7261928,70.0693542 Z" id="Shape" sketch:type="MSShapeGroup"></path>
                <path d="M35.9866627,39.5736042 C35.7862771,39.5736042 35.5836145,39.5173333 35.4029639,39.3994687 C34.9080723,39.0762917 34.7676506,38.4116875 35.090241,37.9151354 C35.259506,37.6543125 39.3393253,31.5200312 47.6378675,31.0820312 C48.2147349,31.0584583 48.7316386,31.5048229 48.762759,32.0964271 C48.7938795,32.6880312 48.3399759,33.1929479 47.7494458,33.224125 C40.5264578,33.6043333 36.9195181,39.0299062 36.8846024,39.0854167 C36.6796627,39.40175 36.3365783,39.5736042 35.9866627,39.5736042 L35.9866627,39.5736042 L35.9866627,39.5736042 Z" id="Shape" sketch:type="MSShapeGroup"></path>
                <path d="M32.0715542,40.4777396 C32.0495422,40.4777396 32.0282892,40.4777396 32.0062771,40.4769792 C31.414988,40.4526458 30.9565301,39.9530521 30.9808193,39.3606875 C31.0028313,38.8299167 31.4066386,38.4048438 31.9151928,38.3402083 C32.1755422,38.1417396 32.656012,37.4406354 32.8951084,37.0923646 C33.0901807,36.8072083 33.2746265,36.5380208 33.4484458,36.326625 C33.7862169,35.9144792 34.376747,35.8133438 34.8314096,36.0901354 C35.2541928,36.3471563 35.5418675,36.6680521 35.7953855,36.9516875 C36.0451084,37.2307604 36.2098193,37.4064167 36.4215904,37.5007083 C36.9627831,37.7402396 37.2064337,38.3736667 36.9673373,38.9158438 C36.728241,39.4572604 36.0974819,39.7021146 35.5547711,39.4625833 C35.0591205,39.2428229 34.7114819,38.9310521 34.4329157,38.6375313 C33.789253,39.5599167 33.053747,40.4777396 32.0715542,40.4777396 L32.0715542,40.4777396 L32.0715542,40.4777396 Z" id="Shape" sketch:type="MSShapeGroup"></path>
                <path d="M28.1139398,39.5736042 C27.7647831,39.5736042 27.4216988,39.4025104 27.216759,39.0876979 C27.1636265,39.0078542 23.5141807,33.6028125 16.3503976,33.2256458 C15.7598675,33.1937083 15.3067229,32.6895521 15.3370843,32.0979479 C15.3682048,31.5063438 15.8737229,31.0599792 16.4627349,31.0835521 C24.7620361,31.5215521 28.8410964,37.6558333 29.0103614,37.9166563 C29.3329518,38.4132083 29.1925301,39.0778125 28.6968795,39.4009896 C28.5162289,39.5173333 28.3135663,39.5736042 28.1139398,39.5736042 L28.1139398,39.5736042 L28.1139398,39.5736042 Z" id="Shape" sketch:type="MSShapeGroup"></path>
                <path d="M32.0282892,40.4777396 C31.0460964,40.4777396 30.3113494,39.5599167 29.6676867,38.6375312 C29.3891205,38.9310521 29.0414819,39.2428229 28.5458313,39.4625833 C28.0046386,39.7021146 27.3723614,39.4580208 27.1332651,38.9158437 C26.8941687,38.3736667 27.1378193,37.741 27.679012,37.5007083 C27.8915422,37.4064167 28.055494,37.2307604 28.3052169,36.9516875 C28.5587349,36.6688125 28.8464096,36.3479167 29.2691928,36.0908958 C29.7246145,35.8148646 30.3143855,35.9152396 30.6521566,36.3273854 C30.8259759,36.5387812 31.0104217,36.8079687 31.205494,37.093125 C31.4438313,37.4413958 31.9250602,38.1425 32.1846506,38.3409687 C32.6939639,38.4056042 33.0977711,38.8306771 33.1197831,39.3614479 C33.1440723,39.9530521 32.6848554,40.4534062 32.0943253,40.4777396 L32.0282892,40.4777396 L32.0282892,40.4777396 L32.0282892,40.4777396 Z" id="Shape" sketch:type="MSShapeGroup"></path>
                <path d="M40.8566386,38.5196667 C39.6573614,38.5196667 38.6554337,37.5486146 38.2318916,36.646 C38.200012,36.5790833 38.1802771,36.5060833 38.1719277,36.4330833 C38.1499157,36.2315729 38.2167108,36.0095312 38.3571325,35.8650521 C38.4444217,35.7745625 40.5537831,33.6469167 44.4225904,32.9876354 C44.7216506,32.9382083 45.0169157,33.0910521 45.1467108,33.3670833 L45.612,34.3586667 C45.8753855,34.9198542 45.904988,35.5494792 45.6947349,36.1334792 C45.485241,36.7167187 45.0609398,37.1828542 44.5007711,37.4467187 C44.4742048,37.4596458 44.4461205,37.4702917 44.4180361,37.4794167 L41.3150964,38.4664375 C41.285494,38.4763229 41.2551325,38.4831667 41.2247711,38.4884896 C41.1040843,38.5097812 40.9796024,38.5196667 40.8566386,38.5196667 L40.8566386,38.5196667 L40.8566386,38.5196667 Z" id="Shape" sketch:type="MSShapeGroup"></path>
                <path d="M23.2432048,38.5196667 C23.120241,38.5196667 22.995759,38.5090208 22.8750723,38.4884896 C22.8439518,38.4831667 22.8135904,38.4755625 22.783988,38.4664375 L19.6810482,37.4794167 C19.6529639,37.4702917 19.6248795,37.4596458 19.5983133,37.4467188 C19.0381446,37.1828542 18.6146024,36.7167188 18.4043494,36.1334792 C18.1940964,35.5494792 18.2236988,34.9198542 18.4870843,34.3586667 L18.9531325,33.3670833 C19.0821687,33.0918125 19.3789518,32.9382083 19.677253,32.9876354 C23.5460602,33.6469167 25.6546627,35.7745625 25.7427108,35.8650521 C25.8838916,36.0095313 25.9499277,36.2315729 25.9279157,36.4330833 C25.9195663,36.5068438 25.8990723,36.5790833 25.8671928,36.646 C25.4444096,37.5486146 24.443241,38.5196667 23.2432048,38.5196667 L23.2432048,38.5196667 L23.2432048,38.5196667 Z" id="Shape" sketch:type="MSShapeGroup"></path>
                <path d="M47.9376867,52.7995313 C43.1876386,49.7905625 37.696012,48.2005313 32.0548554,48.2005313 C26.4114217,48.2005313 20.9197952,49.7920833 16.170506,52.8002917 C14.0937831,54.1158125 13.4728916,56.8776458 14.7852651,58.9581458 C15.6057831,60.2584583 17.0153133,61.0348438 18.5538795,61.0348438 C19.3948916,61.0348438 20.2176867,60.7975938 20.9311807,60.343625 C24.2534819,58.2387917 28.1010361,57.1270625 32.0540964,57.1270625 C36.0071566,57.1270625 39.8531928,58.2387917 43.1739759,60.3428646 C43.8882289,60.7945521 44.7102651,61.0348438 45.5520361,61.0348438 L45.5520361,61.0348438 C47.0906024,61.0348438 48.4993735,60.2569375 49.3206506,58.956625 C50.6345422,56.8746042 50.0136506,54.1127708 47.9376867,52.7995313 L47.9376867,52.7995313 Z M39.9457952,53.8367396 C39.9457952,54.6290938 39.8068916,55.4077604 39.5366747,56.1400417 C38.177241,55.6739063 36.7737831,55.3324792 35.3445181,55.1279271 C35.6208072,54.3355729 35.7650241,53.4960729 35.7650241,52.6428854 C35.7650241,51.9638333 35.6739398,51.2961875 35.4970843,50.6498333 C36.855,50.8194063 38.1954578,51.090875 39.5078313,51.4589167 C39.795506,52.2140104 39.9457952,53.0177708 39.9457952,53.8367396 L39.9457952,53.8367396 Z M20.119012,55.3499688 C20.119012,54.5195938 20.2753735,53.7059479 20.5691205,52.94325 C21.6469518,52.4482188 22.7543855,52.0239063 23.8845904,51.6725938 C23.6773735,52.3691354 23.5688313,53.0976146 23.5688313,53.8367396 C23.5688313,54.6982917 23.7145663,55.5446354 23.9969277,56.3453542 C22.8393976,56.7765104 21.7160241,57.305 20.6359157,57.9209375 C20.2996627,57.1103333 20.119012,56.2404167 20.119012,55.3499688 L20.119012,55.3499688 Z M24.4614578,53.8367396 C24.4614578,52.9843125 24.6261687,52.149375 24.9381325,51.3691875 C26.2429157,51.0193958 27.573506,50.7661771 28.9223133,50.6125729 C28.7386265,51.2703333 28.644506,51.9524271 28.644506,52.6436458 C28.644506,53.4831458 28.7834096,54.3081979 29.0505904,55.0929479 C27.6167711,55.27925 26.208,55.5993854 24.8409759,56.0487917 C24.591253,55.3423646 24.4614578,54.5956354 24.4614578,53.8367396 L24.4614578,53.8367396 Z M18.5546386,58.8037813 C17.7842169,58.8037813 17.0790723,58.4152083 16.6676747,57.7658125 C16.0111084,56.7255625 16.3223133,55.3438854 17.3599157,54.6876458 C18.0438072,54.2549688 18.7459157,53.8565104 19.4609277,53.4892292 C19.3068434,54.093 19.2279036,54.7180625 19.2279036,55.3514896 C19.2279036,56.4031458 19.4472651,57.4342708 19.8624578,58.3847917 C19.8214699,58.4098854 19.781241,58.4326979 19.740253,58.4593125 C19.3842651,58.6836354 18.9743855,58.8037813 18.5546386,58.8037813 L18.5546386,58.8037813 Z M29.9621928,54.9918125 C29.6821084,54.2458438 29.5348554,53.4527292 29.5348554,52.6436458 C29.5348554,51.9159271 29.6563012,51.200375 29.8847711,50.5198021 C30.6043373,50.4635313 31.3292169,50.4308333 32.0556145,50.4308333 C32.886,50.4308333 33.7110723,50.4734167 34.5338675,50.5464167 C34.7562651,51.2178646 34.8746747,51.9242917 34.8746747,52.6436458 C34.8746747,53.4610938 34.7236265,54.2648542 34.4367108,55.0169063 C33.6503494,54.9363021 32.8556386,54.8929583 32.0556145,54.8929583 C31.353506,54.8937188 30.6551928,54.9286979 29.9621928,54.9918125 L29.9621928,54.9918125 Z M40.3731325,56.4464896 C40.6790241,55.6153542 40.8369036,54.7340313 40.8369036,53.8359792 C40.8369036,53.1325938 40.738988,52.4398542 40.549988,51.7729688 C41.6930964,52.1440521 42.8126747,52.5926979 43.9003735,53.1151042 C44.1538916,53.8276146 44.2867229,54.5819479 44.2867229,55.3492083 C44.2867229,56.2898438 44.0893735,57.2107083 43.7136506,58.0578125 C42.6426506,57.4289479 41.5238313,56.8920938 40.3731325,56.4464896 L40.3731325,56.4464896 Z M47.439759,57.7635313 C47.0291205,58.4129271 46.3239759,58.8022604 45.5543133,58.8022604 C45.1793494,58.8022604 44.8112169,58.7049271 44.4817952,58.5231875 C44.939494,57.533125 45.1793494,56.4533333 45.1793494,55.3499688 C45.1793494,54.777375 45.1140723,54.211625 44.9880723,53.6610833 C45.5854337,53.9796979 46.1729277,54.3196042 46.7475181,54.6846042 C47.7858795,55.3423646 48.0955663,56.7232813 47.439759,57.7635313 L47.439759,57.7635313 Z" id="Shape" sketch:type="MSShapeGroup"></path>
                <path d="M30.4677108,66.6003333 C29.8764217,66.6003333 29.3967108,66.11975 29.3967108,65.5273854 C29.3967108,64.9350208 29.8764217,64.4551979 30.4677108,64.4551979 C34.2522651,64.4551979 37.3817711,63.9951458 37.4128916,63.9905833 C37.9981084,63.9031354 38.5423373,64.3069167 38.6296265,64.8931979 C38.7169157,65.4794792 38.3138675,66.0246979 37.7286506,66.1129063 C37.5943012,66.1319167 34.4093855,66.6003333 30.4677108,66.6003333 L30.4677108,66.6003333 L30.4677108,66.6003333 Z" id="Shape" sketch:type="MSShapeGroup"></path>
            </g>
        </g>
    </g>
</svg>