<?xml version="1.0" encoding="UTF-8" standalone="no"?>
<svg width="53px" height="70px" viewBox="0 0 53 70" version="1.1" xmlns="http://www.w3.org/2000/svg" xmlns:xlink="http://www.w3.org/1999/xlink" xmlns:sketch="http://www.bohemiancoding.com/sketch/ns">
    <title>spidey</title>
    <description>Created with Sketch (http://www.bohemiancoding.com/sketch)</description>
    <defs></defs>
    <g id="Page-1" stroke="none" stroke-width="1" fill="none" fill-rule="evenodd" sketch:type="MSPage">
        <g id="spidey" sketch:type="MSArtboardGroup" transform="translate(-17.000000, -16.000000)" fill="#929292">
            <g id="icon_30939" sketch:type="MSLayerGroup" transform="translate(17.000000, 17.000000)">
                <path d="M26.4225,36.0992258 L25.8122222,34.1447742 L25.7768333,34.1572043 C25.8461667,34.1286882 32.7412222,30.9882581 32.7412222,1.45651613 C32.7412222,0.891311828 33.1947778,0.432129032 33.7530556,0.432129032 C34.3120556,0.432129032 34.7648889,0.891311828 34.7648889,1.45651613 C34.7656111,32.5317849 27.2761667,35.8257634 26.4225,36.0992258 L26.4225,36.0992258 L26.4225,36.0992258 Z" id="Shape" sketch:type="MSShapeGroup"></path>
                <path d="M45.4848333,14.5812473 C45.1858333,14.5812473 44.8608333,14.5388387 44.5177778,14.4313548 C43.2582222,14.0357849 42.2073889,12.8944086 41.3840556,11.0328172 C40.3642778,11.4020645 38.7342222,11.7581505 37.0312222,11.184172 C35.4755556,10.659914 34.2066111,9.49367742 33.2460556,7.71105376 C32.3851667,8.20972043 31.0938333,8.70911828 29.6688889,8.41737634 C27.9485556,8.06421505 26.5438333,6.69105376 25.4908333,4.33445161 C25.2604444,3.81823656 25.4865,3.21135484 25.9956667,2.97810753 C26.5055556,2.74486022 27.105,2.97445161 27.3353889,3.48993548 C28.1023889,5.20675269 29.0196111,6.18726882 30.0603333,6.40662366 C31.5322222,6.71737634 32.9463333,5.43707527 32.9600556,5.42391398 C33.2048889,5.20017204 33.5428889,5.10877419 33.8628333,5.18116129 C34.1835,5.25354839 34.4514444,5.47802151 34.5778333,5.78511828 C35.3419444,7.6372043 36.3768889,8.7975914 37.6545,9.23483871 C39.5228889,9.87389247 41.4042778,8.79247312 41.4237778,8.78150538 C41.6830556,8.62941935 41.9986667,8.60017204 42.2817778,8.70546237 C42.5641667,8.81002151 42.7866111,9.03522581 42.8877222,9.32184946 C43.5081111,11.0803441 44.291,12.1968602 45.0926667,12.4666667 C45.6718889,12.6618925 46.1427778,12.3504086 46.163,12.3372473 C46.6158333,12.0045591 47.2405556,12.1135054 47.5684444,12.571957 C47.8963333,13.0304086 47.7872778,13.676043 47.3351667,14.008 C47.2347778,14.0796559 46.5118333,14.5812473 45.4848333,14.5812473 L45.4848333,14.5812473 L45.4848333,14.5812473 Z" id="Shape" sketch:type="MSShapeGroup"></path>
                <path d="M26.0433333,36.1474839 C25.9422222,36.1474839 25.8396667,36.132129 25.7378333,36.099957 C24.8834444,35.8264946 17.3947222,32.5325161 17.3947222,1.45797849 C17.3947222,0.892774194 17.8475556,0.433591398 18.4072778,0.433591398 C18.9662778,0.433591398 19.4191111,0.892774194 19.4191111,1.45797849 C19.4191111,31.0993978 26.2795,34.1235699 26.3481111,34.1462366 C26.8811111,34.3173333 27.1765,34.8927742 27.0089444,35.4331183 C26.8717222,35.8689032 26.4723333,36.1474839 26.0433333,36.1474839 L26.0433333,36.1474839 L26.0433333,36.1474839 Z" id="Shape" sketch:type="MSShapeGroup"></path>
                <path d="M6.6755,14.5812473 C5.64705556,14.5812473 4.92483333,14.0796559 4.82588889,14.0072688 C4.37305556,13.6753118 4.27122222,13.0347957 4.59911111,12.5756129 C4.92411111,12.1208172 5.54738889,12.0162581 6.00022222,12.3372473 C6.03922222,12.3628387 6.50216667,12.656043 7.06766667,12.4652043 C7.86933333,12.1953978 8.65222222,11.0788817 9.27261111,9.3203871 C9.37444444,9.03230108 9.59761111,8.80563441 9.88144444,8.70107527 C10.1652778,8.59651613 10.4801667,8.62649462 10.7401667,8.78223656 C10.7553333,8.79101075 12.6381667,9.87169892 14.5051111,9.23337634 C15.7834444,8.79612903 16.8183889,7.63574194 17.5817778,5.78365591 C17.7088889,5.47509677 17.9768333,5.24843011 18.2996667,5.17677419 C18.6232222,5.10584946 18.9597778,5.19870968 19.2024444,5.42537634 C19.2132778,5.4356129 20.6273889,6.7151828 22.1,6.40516129 C23.1414444,6.18653763 24.0586667,5.20529032 24.8249444,3.48847312 C25.0553333,2.97298925 25.6547778,2.74339785 26.1646667,2.97664516 C26.6738333,3.20989247 26.9006111,3.81677419 26.6695,4.33298925 C25.6165,6.6895914 24.2110556,8.06275269 22.4914444,8.41591398 C21.0650556,8.7083871 19.7744444,8.20752688 18.9135556,7.7095914 C17.9537222,9.49221505 16.6847778,10.6591828 15.1283889,11.1827097 C13.4253889,11.7566882 11.7953333,11.4006022 10.7755556,11.0313548 C9.95294444,12.8929462 8.90138889,14.0350538 7.64183333,14.4298925 C7.2995,14.5388387 6.9745,14.5812473 6.6755,14.5812473 L6.6755,14.5812473 L6.6755,14.5812473 Z" id="Shape" sketch:type="MSShapeGroup"></path>
                <path d="M26.2405,68.1323441 C12.0784444,68.1323441 0.533722222,56.5664946 0.338722222,42.2747957 C0.313444444,42.1563441 0.299722222,42.0335054 0.299722222,41.9070108 L0.299722222,17.0965161 C0.299722222,12.5551398 2.73144444,8.16292473 7.14566667,4.73002151 C11.1041667,1.65247312 16.1835556,-0.18572043 20.7335556,-0.18572043 L31.6730556,-0.18572043 C36.2223333,-0.18572043 41.3024444,1.65247312 45.2595,4.73002151 C49.6758889,8.16292473 52.1061667,12.5551398 52.1061667,17.0965161 L52.1061667,41.5494624 C52.1307222,41.6642581 52.1437222,41.784172 52.1437222,41.9062796 C52.1444444,56.3668817 40.5238889,68.1323441 26.2405,68.1323441 L26.2405,68.1323441 L26.2405,68.1323441 Z M3.66383333,41.5501935 C3.68838889,41.6649892 3.70066667,41.7849032 3.70066667,41.9062796 C3.70066667,54.4892043 13.8117778,64.7257634 26.2397778,64.7257634 C38.5551111,64.7257634 48.594,54.6756559 48.7767222,42.252129 C48.7550556,42.1409892 48.7427778,42.0247312 48.7427778,41.9062796 L48.7427778,17.0965161 C48.7427778,9.62309677 39.3560556,3.22012903 31.6723333,3.22012903 L20.7335556,3.22012903 C13.0498333,3.22012903 3.66383333,9.62309677 3.66383333,17.0965161 L3.66383333,41.5501935 L3.66383333,41.5501935 L3.66383333,41.5501935 Z" id="Shape" sketch:type="MSShapeGroup"></path>
                <path d="M26.0794444,66.868129 C25.5211667,66.868129 25.0676111,66.4096774 25.0676111,65.8437419 L25.0676111,2.75436559 C25.0676111,2.18843011 25.5204444,1.72924731 26.0794444,1.72924731 C26.6384444,1.72924731 27.092,2.18769892 27.092,2.75436559 L27.092,65.8437419 C27.0927222,66.4096774 26.6391667,66.868129 26.0794444,66.868129 L26.0794444,66.868129 L26.0794444,66.868129 Z" id="Shape" sketch:type="MSShapeGroup"></path>
                <path d="M18.9828889,65.8181505 C18.4238889,65.8181505 17.9703333,65.3589677 17.9703333,64.7930323 C17.9703333,35.9610323 24.9527778,32.8944516 25.7493889,32.6392688 L26.3596667,34.5937204 L26.3979444,34.579828 C26.3336667,34.6061505 19.9947222,37.5425806 19.9947222,64.7923011 C19.9954444,65.3589677 19.5418889,65.8181505 18.9828889,65.8181505 L18.9828889,65.8181505 L18.9828889,65.8181505 Z" id="Shape" sketch:type="MSShapeGroup"></path>
                <path d="M25.7818889,63.5449032 C25.3962222,63.5449032 25.0286111,63.3204301 24.8588889,62.9424086 C24.1561667,61.3710968 23.322,60.476129 22.3787778,60.2816344 C21.0578333,60.0125591 19.7831111,61.1605161 19.7708333,61.1729462 C19.5281667,61.3996129 19.1908889,61.4932043 18.8680556,61.4208172 C18.5452222,61.3498925 18.2772778,61.1232258 18.1494444,60.8146667 C17.4517778,59.1212473 16.5085556,58.0603011 15.3465,57.6625376 C13.6507222,57.0805161 11.9332778,58.0654194 11.9166667,58.0749247 C11.6566667,58.2270108 11.3417778,58.2562581 11.0593889,58.1509677 C10.777,58.0464086 10.5538333,57.8212043 10.4527222,57.5353118 C9.68933333,55.3702796 8.87683333,54.8109247 8.46011111,54.6705376 C7.95961111,54.5009032 7.54938889,54.7692473 7.53205556,54.7802151 C7.07994444,55.112172 6.45522222,55.0046882 6.12733333,54.5455054 C5.79872222,54.0870538 5.9085,53.4406882 6.36133333,53.1087312 C6.48266667,53.0195269 7.59055556,52.2495914 9.03572222,52.7043871 C10.2093333,53.072172 11.1886667,54.1221505 11.9556667,55.8294624 C12.9147778,55.4923871 14.4090556,55.1852903 15.9705,55.7117419 C17.4106111,56.1965161 18.5885556,57.2662366 19.4819444,58.8975054 C20.2901111,58.4419785 21.4752778,58.004 22.7803333,58.2723441 C24.3981111,58.6043011 25.7176111,59.8911828 26.7027222,62.0964301 C26.9331111,62.611914 26.7070556,63.2195269 26.1978889,63.452043 C26.0628333,63.5156559 25.9212778,63.5449032 25.7818889,63.5449032 L25.7818889,63.5449032 L25.7818889,63.5449032 Z" id="Shape" sketch:type="MSShapeGroup"></path>
                <path d="M26.0556111,55.9193978 C25.6699444,55.9193978 25.3023333,55.6949247 25.1326111,55.3169032 C24.6436667,54.2223226 23.8232222,52.8740215 22.6915,52.6627097 C21.4745556,52.4382366 20.3233333,53.5532903 20.3117778,53.5642581 C20.0727222,53.8048172 19.7318333,53.9101075 19.4003333,53.8421075 C19.0695556,53.7755699 18.7943889,53.5467097 18.6643889,53.2323011 C17.8641667,51.2902796 16.9166111,50.1284301 15.9242778,49.8710538 C15.0215,49.6378065 14.2855556,50.2227527 14.2545,50.2490753 C13.9988333,50.4552688 13.6557778,50.5291183 13.3408889,50.4391828 C13.026,50.3485161 12.7688889,50.1130753 12.6591111,49.8008602 C12.1925556,48.475957 11.4927222,47.6029247 10.5805556,47.2058925 C9.18233333,46.596086 7.65194444,47.243914 7.6375,47.2512258 C7.38616667,47.363828 7.10016667,47.3682151 6.84594444,47.2621935 C6.59172222,47.1569032 6.39022222,46.9514409 6.28911111,46.6933333 C6.28694444,46.6882151 5.8175,45.5643871 4.87572222,45.2631398 C4.26833333,45.0686452 3.52588889,45.2492473 2.66861111,45.8012903 C2.197,46.1047312 1.57155556,45.9636129 1.27111111,45.4861505 C0.971388889,45.0086882 1.11077778,44.3747527 1.58238889,44.0705806 C2.97772222,43.1726882 4.29938889,42.9189677 5.50911111,43.316 C6.59461111,43.6706237 7.30383333,44.4624946 7.71622222,45.0869247 C8.59155556,44.8734194 9.98977778,44.7169462 11.3807778,45.3230968 C12.532,45.8246882 13.4448889,46.7313548 14.1042778,48.0262796 C14.7376667,47.7923011 15.5335556,47.6658065 16.3828889,47.8749247 C17.7919444,48.2229677 19.0038333,49.3650753 19.9954444,51.2785806 C20.7566667,50.8340215 21.8450556,50.4216344 23.0583889,50.6468387 C24.6581111,50.9451613 25.9768889,52.232043 26.9771667,54.4716559 C27.2075556,54.9871398 26.9822222,55.5947527 26.4723333,55.8272688 C26.3365556,55.8901505 26.195,55.9193978 26.0556111,55.9193978 L26.0556111,55.9193978 L26.0556111,55.9193978 Z" id="Shape" sketch:type="MSShapeGroup"></path>
                <path d="M33.1955,65.8181505 C32.6365,65.8181505 32.1836667,65.3589677 32.1836667,64.7930323 C32.1836667,37.3970753 25.8822778,34.6134624 25.8194444,34.5937204 C25.2864444,34.4233548 24.9903333,33.8471828 25.1586111,33.3068387 C25.3268889,32.7664946 25.896,32.468172 26.429,32.6385376 C27.2256111,32.8937204 34.2080556,35.9603011 34.2080556,64.7923011 C34.2080556,65.3589677 33.7545,65.8181505 33.1955,65.8181505 L33.1955,65.8181505 L33.1955,65.8181505 Z" id="Shape" sketch:type="MSShapeGroup"></path>
                <path d="M26.3965,63.5449032 C26.2571111,63.5449032 26.1155556,63.5156559 25.9797778,63.4535054 C25.4706111,63.2209892 25.2438333,62.6133763 25.4749444,62.0978925 C26.4600556,59.891914 27.7795556,58.6057634 29.3973333,58.2738065 C30.7031111,58.0061935 31.8875556,58.4434409 32.6964444,58.8989677 C33.5891111,57.2676989 34.7670556,56.1979785 36.2071667,55.7132043 C37.7671667,55.1867527 39.2621667,55.4938495 40.222,55.8309247 C40.989,54.1236129 41.9683333,53.0736344 43.1419444,52.7058495 C44.5849444,52.2517849 45.6942778,53.0202581 45.8163333,53.1101935 C46.2691667,53.4421505 46.3702778,54.0819355 46.0423889,54.5403871 C45.7181111,54.9944516 45.0941111,55.0990108 44.6427222,54.7802151 C44.6058889,54.7568172 44.2043333,54.5045591 43.7168333,54.672 C43.3008333,54.8123871 42.4868889,55.3717419 41.7242222,57.5367742 C41.6223889,57.8248602 41.3992222,58.0515269 41.1146667,58.1553548 C40.8308333,58.259914 40.5159444,58.2299355 40.2566667,58.0749247 C40.2429444,58.0676129 38.5262222,57.0827097 36.8304444,57.664 C35.6691111,58.0617634 34.7258889,59.1219785 34.0282222,60.816129 C33.9003889,61.1246882 33.6324444,61.3513548 33.3096111,61.4222796 C32.9875,61.4953978 32.6495,61.4010753 32.4068333,61.1744086 C32.3974444,61.1656344 31.1133333,60.0067097 29.7887778,60.2852903 C28.8491667,60.4834409 28.0186111,61.3769462 27.3187778,62.943871 C27.1505,63.3211613 26.7814444,63.5449032 26.3965,63.5449032 L26.3965,63.5449032 L26.3965,63.5449032 Z" id="Shape" sketch:type="MSShapeGroup"></path>
                <path d="M26.1227778,55.9193978 C25.9841111,55.9193978 25.8418333,55.8901505 25.7060556,55.828 C25.1968889,55.5954839 24.9708333,54.987871 25.2012222,54.4723871 C26.2022222,52.2327742 27.5202778,50.9458925 29.12,50.6475699 C30.3347778,50.4216344 31.4224444,50.8347527 32.1829444,51.2793118 C33.1745556,49.3658065 34.3864444,48.2229677 35.7955,47.8756559 C36.6462778,47.6665376 37.4414444,47.7930323 38.0733889,48.0270108 C38.7335,46.732086 39.6463889,45.8246882 40.7968889,45.323828 C42.1871667,44.7176774 43.5853889,44.8741505 44.4614444,45.0876559 C44.8731111,44.4632258 45.5816111,43.6713548 46.6678333,43.3167312 C47.8797222,42.9196989 49.2006667,43.1741505 50.5952778,44.0713118 C51.0668889,44.3754839 51.2062778,45.0086882 50.9065556,45.4868817 C50.6061111,45.9643441 49.9806667,46.1054624 49.5090556,45.8020215 C48.6517778,45.2499785 47.9093333,45.0693763 47.3012222,45.263871 C46.3594444,45.5651183 45.8907222,46.6889462 45.8863889,46.7006452 C45.7809444,46.955828 45.5787222,47.159828 45.3266667,47.2629247 C45.0746111,47.3667527 44.7900556,47.3645591 44.5401667,47.2526882 C44.5293333,47.2483011 42.9852222,46.5938925 41.5819444,47.2139355 C40.677,47.6138925 39.9822222,48.4847312 39.5178333,49.8023226 C39.4066111,50.1189247 39.1495,50.3594839 38.8295556,50.4472258 C38.5110556,50.5349677 38.168,50.4589247 37.9137778,50.243957 C37.8913889,50.2256774 37.154,49.64 36.2533889,49.8732473 C35.2610556,50.1306237 34.3127778,51.2917419 33.5132778,53.2344946 C33.3825556,53.5489032 33.1073889,53.7777634 32.7766111,53.8443011 C32.4458333,53.9123011 32.1042222,53.8070108 31.8644444,53.5664516 C31.8572222,53.5591398 30.6987778,52.428 29.4753333,52.6670968 C28.3479444,52.8835269 27.5303889,54.2289032 27.0436111,55.3190968 C26.8767778,55.6949247 26.5084444,55.9193978 26.1227778,55.9193978 L26.1227778,55.9193978 L26.1227778,55.9193978 Z" id="Shape" sketch:type="MSShapeGroup"></path>
                <path d="M38.5572778,43.6910968 C35.6683889,43.6910968 28.7350556,42.6403871 26.7496667,32.9068817 C26.6131667,32.2363871 26.8847222,31.5490753 27.4393889,31.1578925 C30.9580556,28.6850323 40.4646667,21.5530753 42.1727222,18.2971183 C42.432,17.8035699 42.9137222,17.4694194 43.4626111,17.4028817 C44.0107778,17.3370753 44.5575,17.5461935 44.9236667,17.9644301 C45.1742778,18.2503226 50.9571111,25.1629247 41.5299444,42.6849892 C41.2894444,43.1324731 40.8647778,43.4468817 40.3715,43.5448602 C40.2963889,43.5594839 39.5994444,43.6910968 38.5572778,43.6910968 L38.5572778,43.6910968 L38.5572778,43.6910968 Z M30.3087778,33.2922151 C31.8622778,39.0298065 35.6048333,40.2757419 38.5572778,40.2757419 C38.7125556,40.2757419 38.8548333,40.2713548 38.9841111,40.2647742 C43.9212222,30.7908387 43.9082222,25.1980215 43.2791667,22.4253763 C39.7027222,26.392043 32.9268333,31.4086882 30.3087778,33.2922151 L30.3087778,33.2922151 L30.3087778,33.2922151 Z" id="Shape" sketch:type="MSShapeGroup"></path>
                <path d="M36.9676667,43.588 C36.1212222,43.4797849 35.1498333,43.2655484 34.1452222,42.872172 C36.6484444,46.8454194 39.1401111,52.5983656 40.7051667,60.8417204 C40.7983333,61.3316129 41.2222778,61.6730753 41.6982222,61.6730753 C41.7610556,61.6730753 41.8253333,61.6664946 41.8903333,61.6547957 C42.4392222,61.5473118 42.7988889,61.0106237 42.6927222,60.4541935 C41.2966667,53.1006882 39.1964444,47.6343656 36.9676667,43.588 L36.9676667,43.588 Z" id="Shape" sketch:type="MSShapeGroup"></path>
                <path d="M38.9458333,22.0027527 C40.8936667,17.9307957 42.6739444,12.7350108 43.9284444,6.12658065 C44.0338889,5.57088172 43.6735,5.03346237 43.1260556,4.92670968 C42.5742778,4.81995699 42.0463333,5.18408602 41.9401667,5.73978495 C40.1432778,15.207871 37.2146667,21.6393548 34.3395,25.9540645 C35.9645,24.648172 37.5837222,23.2786667 38.9458333,22.0027527 L38.9458333,22.0027527 Z" id="Shape" sketch:type="MSShapeGroup"></path>
                <path d="M47.3857222,21.0324731 C47.2831667,20.7736344 47.0831111,20.5689032 46.8288889,20.4628817 C46.6245,20.3780645 46.4013333,20.3670968 46.1904444,20.4226667 C46.4757222,21.2715699 46.7270556,22.3529892 46.8411667,23.6852043 C47.2383889,24.0471398 47.7287778,24.3739785 48.3275,24.5699355 C48.4871111,24.6225806 48.6481667,24.6613333 48.8113889,24.692043 L48.8113889,22.5664946 C47.8587778,22.1658065 47.3886111,21.0390538 47.3857222,21.0324731 L47.3857222,21.0324731 Z" id="Shape" sketch:type="MSShapeGroup"></path>
                <path d="M29.3677222,16.651957 C30.6944444,16.8983656 31.8810556,16.4252903 32.6928333,15.9368602 C33.7595556,18.0265806 35.0631667,19.2725161 36.5798333,19.6454194 C37.5548333,19.8859785 38.4186111,19.7097634 39.0592222,19.4567742 C39.3408889,20.0212473 39.6680556,20.5147957 40.0363889,20.9425376 C40.5722778,20.3985376 41.0388333,19.8837849 41.4158333,19.4107097 C41.0561667,18.9449462 40.7499444,18.3673118 40.5051111,17.6734194 C40.3960556,17.3612043 40.1389444,17.1250323 39.8233333,17.0350968 C39.5084444,16.9444301 39.1646667,17.0190108 38.909,17.2266667 C38.8750556,17.2544516 38.051,17.9095914 37.0384444,17.6492903 C35.9406667,17.3663226 34.8977778,16.0947957 34.0231667,13.9729032 C33.8931667,13.659957 33.618,13.4332903 33.2893889,13.3652903 C32.9615,13.2965591 32.6184444,13.3996559 32.3779444,13.6365591 C32.3656667,13.6497204 31.0822778,14.8963871 29.7237778,14.6346237 C28.4721667,14.3947957 27.5722778,12.9192688 27.0378333,11.7245161 C26.8088889,11.2090323 26.2087222,10.980172 25.6988333,11.2134194 C25.1896667,11.4466667 24.9636111,12.0535484 25.194,12.5690323 C26.2643333,14.9614624 27.6683333,16.3353548 29.3677222,16.651957 L29.3677222,16.651957 Z" id="Shape" sketch:type="MSShapeGroup"></path>
                <path d="M46.4482778,29.775957 C46.2568889,30.7689032 45.9976111,31.8327742 45.6617778,32.9675699 C46.8202222,32.1837419 47.8725,31.2829247 48.8106667,30.2643871 L48.8106667,27.0215914 C48.1209444,28.0423226 47.3315556,28.9577634 46.4482778,29.775957 L46.4482778,29.775957 Z" id="Shape" sketch:type="MSShapeGroup"></path>
                <path d="M42.8920556,40.0117849 C42.5706667,40.6815484 42.2254444,41.3673978 41.8556667,42.0707957 C44.1169444,45.5102796 45.2075,50.0501935 45.0905,55.6313118 C45.0782222,56.1965161 45.5231111,56.6652043 46.0821111,56.6776344 C46.0886111,56.6783656 46.0958333,56.6783656 46.1030556,56.6783656 C46.6526667,56.6783656 47.1033333,56.2338065 47.1141667,55.6751828 C47.2513889,49.1566882 45.8278889,43.9067957 42.8920556,40.0117849 L42.8920556,40.0117849 Z" id="Shape" sketch:type="MSShapeGroup"></path>
                <path d="M51.0098333,44.599957 C49.7394444,40.8826237 47.5987778,37.9396129 44.6889444,35.8411183 C44.447,36.4794409 44.1805,37.1389677 43.8908889,37.8167742 C46.0698333,39.4846022 47.9367778,41.8733763 49.0966667,45.2697204 C49.2418333,45.6938065 49.634,45.9592258 50.0528889,45.9592258 C50.1626667,45.9592258 50.2746111,45.9416774 50.3843889,45.9029247 C50.9123333,45.7186667 51.1925556,45.1351828 51.0098333,44.599957 L51.0098333,44.599957 Z" id="Shape" sketch:type="MSShapeGroup"></path>
                <path d="M31.304,24.9750108 C31.7445556,25.8209892 32.2696111,26.5331613 32.851,27.132 C33.3796667,26.7181505 33.9177222,26.2933333 34.4550556,25.8612043 C33.7992778,25.2258065 33.2193333,24.4046882 32.7816667,23.3408172 C32.5693333,22.8260645 31.9893889,22.5789247 31.4773333,22.7807312 C31.3408333,22.8355699 28.1074444,24.0844301 27.0486667,21.5757419 C26.8291111,21.0551398 26.234,20.8131183 25.7197778,21.036129 C25.2055556,21.2584086 24.9672222,21.860172 25.1867778,22.3807742 C26.429,25.3237849 29.3561667,25.4436989 31.304,24.9750108 L31.304,24.9750108 Z" id="Shape" sketch:type="MSShapeGroup"></path>
                <path d="M47.3857222,30.8646882 C47.2181667,30.4384086 46.7935,30.1898065 46.3572778,30.2263656 C46.2128333,30.9224516 46.0344444,31.6529032 45.8206667,32.4162581 C45.8517222,32.4126022 45.8863889,32.4096774 45.9167222,32.4052903 C46.3442778,33.0809032 47.1213889,34.008043 48.3275,34.4028817 C48.4871111,34.4547957 48.6481667,34.4942796 48.8113889,34.5242581 L48.8113889,32.3987097 C47.8587778,31.9980215 47.3886111,30.8712688 47.3857222,30.8646882 L47.3857222,30.8646882 Z" id="Shape" sketch:type="MSShapeGroup"></path>
                <path d="M50.5967222,34.9644301 C49.2013889,34.0665376 47.8804444,33.8128172 46.6692778,34.2083871 C45.8423333,34.4803871 45.2371111,35.0031828 44.8117222,35.5128172 C44.5083889,36.3324731 44.1682222,37.1821075 43.7832778,38.0675699 C44.1436667,38.0609892 44.4744444,38.1289892 44.6282778,38.1779785 C45.1316667,38.3498065 45.6848889,38.0902366 45.8885556,37.5915699 C45.8928889,37.579871 46.3616111,36.4567742 47.3033889,36.1547957 C47.9115,35.9610323 48.6539444,36.1416344 49.5112222,36.6929462 C49.9821111,36.9971183 50.6082778,36.856 50.9087222,36.3785376 C51.207,35.9018065 51.0683333,35.2686022 50.5967222,34.9644301 L50.5967222,34.9644301 Z" id="Shape" sketch:type="MSShapeGroup"></path>
                <path d="M31.7676667,41.5757849 C31.4477222,41.9793978 31.1508889,42.4268817 30.8872778,42.9255484 C29.0571667,42.5021935 26.351,42.6425806 25.1925556,45.3845161 C24.9722778,45.9051183 25.2106111,46.5076129 25.7248333,46.7298925 C25.8548333,46.7861935 25.9898889,46.8125161 26.1220556,46.8125161 C26.5149444,46.8125161 26.8890556,46.58 27.0537222,46.1902796 C27.9817778,43.9938065 30.7500556,44.9947957 31.0591667,45.1139785 C31.5712222,45.3172473 32.1511667,45.0686452 32.3635,44.5546237 C32.6848889,43.7744516 33.0907778,43.1383226 33.5479444,42.6162581 C32.9542778,42.3427957 32.3548333,41.999871 31.7676667,41.5757849 L31.7676667,41.5757849 Z" id="Shape" sketch:type="MSShapeGroup"></path>
                <path d="M45.8784444,19.6052043 C46.2568889,20.4855484 46.6425556,21.7344086 46.8144444,23.3963871 C48.1642778,19.9788387 48.7991111,15.9397849 48.7016111,11.3048172 C48.6893333,10.7388817 48.2249444,10.292129 47.6688333,10.3016344 C47.1098333,10.3133333 46.6656667,10.7820215 46.6772222,11.347957 C46.7422222,14.3889462 46.4713889,17.1411183 45.8784444,19.6052043 L45.8784444,19.6052043 Z" id="Shape" sketch:type="MSShapeGroup"></path>
                <path d="M13.6471111,43.6910968 L13.6471111,43.6910968 C12.6049444,43.6910968 11.908,43.5594839 11.8321667,43.5448602 C11.3388889,43.4468817 10.9142222,43.1332043 10.6737222,42.6849892 C1.24583333,25.1629247 7.02866667,18.2503226 7.27927778,17.9644301 C7.64616667,17.5461935 8.19216667,17.3356129 8.74105556,17.4028817 C9.28922222,17.4694194 9.77094444,17.8035699 10.0302222,18.2978495 C11.7397222,21.556 21.2456111,28.6864946 24.7635556,31.1586237 C25.3189444,31.5490753 25.5905,32.2371183 25.454,32.9076129 C23.4700556,42.6396559 16.536,43.6910968 13.6471111,43.6910968 L13.6471111,43.6910968 L13.6471111,43.6910968 Z M13.221,40.2647742 C13.3495556,40.2713548 13.4918333,40.2757419 13.6471111,40.2757419 C16.5995556,40.2757419 20.3428333,39.0298065 21.8963333,33.2922151 C19.2826111,31.4123441 12.5262222,26.4095914 8.94472222,22.4465806 C8.32072222,25.2484731 8.31927778,30.8566452 13.221,40.2647742 L13.221,40.2647742 L13.221,40.2647742 Z" id="Shape" sketch:type="MSShapeGroup"></path>
                <path d="M26.4600556,11.2126882 C25.9494444,10.9787097 25.3507222,11.2083011 25.1203333,11.7237849 C24.5866111,12.9192688 23.6874444,14.3947957 22.4358333,14.6338925 C21.0751667,14.8949247 19.7939444,13.6489892 19.7845556,13.6394839 C19.5455,13.3989247 19.2038889,13.2950968 18.8731111,13.3616344 C18.5423333,13.428172 18.2664444,13.6570323 18.1364444,13.9714409 C17.2618333,16.0933333 16.2189444,17.3648602 15.1211667,17.647828 C14.1057222,17.9088602 13.2845556,17.2529892 13.2578333,17.2310538 C13.0036111,17.016086 12.662,16.940043 12.3420556,17.0270538 C12.0228333,17.1147957 11.7657222,17.356086 11.6537778,17.671957 C11.414,18.351957 11.1157222,18.920086 10.7654444,19.3807312 C11.1417222,19.8545376 11.6082778,20.3714839 12.1456111,20.9184086 C12.5052778,20.4957849 12.8245,20.0102796 13.1011111,19.456043 C13.741,19.7083011 14.6062222,19.8852473 15.5805,19.6446882 C17.0964444,19.2710538 18.4007778,18.0258495 19.4675,15.936129 C20.2785556,16.4245591 21.4658889,16.8976344 22.7926111,16.6512258 C24.4927222,16.3346237 25.8967222,14.9607312 26.9656111,12.5683011 C27.1952778,12.0528172 26.9692222,11.4452043 26.4600556,11.2126882 L26.4600556,11.2126882 Z" id="Shape" sketch:type="MSShapeGroup"></path>
                <path d="M6.00961111,20.4365591 C5.78788889,20.367828 5.54883333,20.3729462 5.33216667,20.4628817 C5.07722222,20.5689032 4.87644444,20.7736344 4.77533333,21.0324731 C4.771,21.0434409 4.3745,21.9727742 3.59666667,22.4407312 L3.59666667,24.6379355 C3.67611111,24.6174624 3.75483333,24.5962581 3.83355556,24.5699355 C4.45755556,24.3659355 4.96238889,24.0186237 5.36827778,23.6384086 C5.48311111,22.3339785 5.72938889,21.2730323 6.00961111,20.4365591 L6.00961111,20.4365591 Z" id="Shape" sketch:type="MSShapeGroup"></path>
                <path d="M13.1798333,21.9289032 C14.5311111,23.2011613 16.1452778,24.5706667 17.7702778,25.8780215 C14.9117222,21.564043 12.0069444,15.1530323 10.2194444,5.73978495 C10.114,5.18408602 9.58388889,4.82068817 9.03427778,4.92670968 C8.48538889,5.03346237 8.12572222,5.57088172 8.23116667,6.12658065 C9.47844444,12.6955269 11.245,17.8671828 13.1798333,21.9289032 L13.1798333,21.9289032 Z" id="Shape" sketch:type="MSShapeGroup"></path>
                <path d="M15.2092778,43.5909247 C12.9812222,47.6372903 10.8817222,53.1028817 9.48638889,60.4534624 C9.38094444,61.0098925 9.74061111,61.5465806 10.2895,61.6540645 C10.3537778,61.6664946 10.4180556,61.6723441 10.4816111,61.6723441 C10.9575556,61.6723441 11.3815,61.3308817 11.4746667,60.8409892 C13.0375556,52.6064086 15.5248889,46.8563871 18.0252222,42.883871 C17.0213333,43.2743226 16.0535556,43.4856344 15.2092778,43.5909247 L15.2092778,43.5909247 Z" id="Shape" sketch:type="MSShapeGroup"></path>
                <path d="M7.41505556,35.5698495 C6.98822222,35.0419355 6.36711111,34.4898925 5.50911111,34.2083871 C4.29938889,33.8128172 2.97772222,34.0665376 1.58238889,34.9644301 C1.11077778,35.2686022 0.971388889,35.9010753 1.27111111,36.38 C1.57155556,36.8567312 2.197,36.9985806 2.66861111,36.6944086 C3.52588889,36.1430968 4.26833333,35.9624946 4.87572222,36.1562581 C5.8175,36.4582366 6.28622222,37.5813333 6.28911111,37.5864516 C6.487,38.0916989 7.04166667,38.3527312 7.55155556,38.1794409 C7.67361111,38.1377634 8.03111111,38.0587957 8.42255556,38.0697634 C8.04627778,37.204043 7.71261111,36.3726882 7.41505556,35.5698495 L7.41505556,35.5698495 Z" id="Shape" sketch:type="MSShapeGroup"></path>
                <path d="M26.9858333,45.3845161 C25.8266667,42.6418495 23.1197778,42.5021935 21.2896667,42.9255484 C21.0289444,42.432 20.7357222,41.988172 20.4201111,41.5882151 C19.8322222,42.0108387 19.2320556,42.3523011 18.6376667,42.6257634 C19.0912222,43.1470968 19.4949444,43.7795699 19.8141667,44.556086 C20.0257778,45.0701075 20.6042778,45.3187097 21.1177778,45.1154409 C21.2412778,45.0671828 24.1706111,43.9353118 25.1232222,46.1917419 C25.2878889,46.5807312 25.6612778,46.8139785 26.0548889,46.8139785 C26.1877778,46.8139785 26.3228333,46.7876559 26.4521111,46.7313548 C26.9670556,46.5076129 27.2053889,45.9051183 26.9858333,45.3845161 L26.9858333,45.3845161 Z" id="Shape" sketch:type="MSShapeGroup"></path>
                <path d="M5.75322222,29.7627957 C4.98116667,29.0579355 4.25533333,28.2550968 3.59594444,27.3411183 L3.59594444,30.5181075 C4.48644444,31.4467097 5.473,32.2751398 6.55272222,33.0012043 C6.20966667,31.8488602 5.94605556,30.7696344 5.75322222,29.7627957 L5.75322222,29.7627957 Z" id="Shape" sketch:type="MSShapeGroup"></path>
                <path d="M10.3371667,42.0495914 C9.96811111,41.3454624 9.62361111,40.6596129 9.30294444,39.9905806 C6.35555556,43.8877849 4.927,49.1457204 5.0635,55.6751828 C5.07505556,56.2338065 5.52572222,56.6783656 6.07461111,56.6783656 C6.08183333,56.6783656 6.08977778,56.6783656 6.09627778,56.6776344 C6.65527778,56.6652043 7.09872222,56.1972473 7.08716667,55.6313118 C6.97088889,50.0392258 8.06577778,45.4912688 10.3371667,42.0495914 L10.3371667,42.0495914 Z" id="Shape" sketch:type="MSShapeGroup"></path>
                <path d="M7.50966667,35.8257634 C4.58827778,37.9242581 2.44111111,40.8731183 1.16855556,44.599957 C0.986555556,45.1344516 1.26605556,45.7186667 1.79472222,45.9036559 C1.9045,45.9424086 2.01572222,45.959957 2.1255,45.959957 C2.54511111,45.959957 2.93727778,45.6945376 3.08244444,45.2704516 C4.1665,42.0978495 5.91427778,39.5979355 8.29472222,37.7699785 C8.00944444,37.1031398 7.748,36.4545806 7.50966667,35.8257634 L7.50966667,35.8257634 Z" id="Shape" sketch:type="MSShapeGroup"></path>
                <path d="M6.29777778,19.6710108 C5.69472222,17.1901075 5.41738889,14.4152688 5.48166667,11.3486882 C5.49322222,10.7827527 5.04977778,10.3140645 4.49077778,10.3023656 L4.46838889,10.3023656 C3.9195,10.3023656 3.46883333,10.7469247 3.45655556,11.3062796 C3.35905556,15.9829247 4.004,20.0541505 5.37983333,23.4914409 C5.54305556,21.8228817 5.92077778,20.5637849 6.29777778,19.6710108 L6.29777778,19.6710108 Z" id="Shape" sketch:type="MSShapeGroup"></path>
                <path d="M5.84711111,30.227828 C5.39644444,30.1671398 4.94866667,30.4215914 4.77461111,30.8646882 C4.77027778,30.8756559 4.37377778,31.8049892 3.59594444,32.2729462 L3.59594444,34.4701505 C3.67538889,34.4496774 3.75411111,34.4284731 3.83283333,34.4028817 C5.03894444,34.008043 5.81533333,33.0809032 6.24361111,32.4052903 C6.28838889,32.411871 6.33822222,32.4155269 6.38516667,32.4206452 C6.17066667,31.6572903 5.99227778,30.9253763 5.84711111,30.227828 L5.84711111,30.227828 Z" id="Shape" sketch:type="MSShapeGroup"></path>
                <path d="M26.4405556,21.0368602 C25.9263333,20.8131183 25.3312222,21.0551398 25.1116667,21.5764731 C24.0615556,24.0632258 20.8173333,22.8341075 20.6822778,22.7814624 C20.1702222,22.5789247 19.591,22.8267957 19.3793889,23.3415484 C18.9446111,24.3944516 18.3718889,25.2097204 17.7240556,25.8421935 C18.2606667,26.2743226 18.798,26.6991398 19.3273889,27.1129892 C19.9008333,26.5185376 20.4193889,25.8129462 20.8548889,24.9757419 C22.8027222,25.4444301 25.7298889,25.3245161 26.9728333,22.3822366 C27.1923889,21.8609032 26.9540556,21.2584086 26.4405556,21.0368602 L26.4405556,21.0368602 Z" id="Shape" sketch:type="MSShapeGroup"></path>
            </g>
        </g>
    </g>
</svg>